<svg width="31" height="22" viewBox="0 0 31 22" fill="none" xmlns="http://www.w3.org/2000/svg">
<path fill-rule="evenodd" clip-rule="evenodd" d="M29.3047 0.0968628H1.69531C0.775 0.0968628 0 0.871863 0 1.79218V19.5687C0 20.489 0.775 21.264 1.69531 21.264H29.3047C30.225 21.264 31 20.489 31 19.5687V1.79218C31 0.823425 30.225 0.0968628 29.3047 0.0968628ZM28.6266 1.54999L16.275 9.00936C15.7906 9.29999 15.1609 9.29999 14.6766 9.00936L2.37344 1.54999H28.6266ZM1.45312 19.5203C1.45312 19.6656 1.55 19.7625 1.69531 19.7625H29.3047C29.45 19.7625 29.5469 19.6656 29.5469 19.5203V2.66405L17.05 10.2687C16.5656 10.5594 16.0328 10.7047 15.5 10.7047C14.9672 10.7047 14.4344 10.5594 13.95 10.2687L1.45312 2.66405V19.5203Z" fill="#979797"/>
</svg>
